<?xml version="1.0" encoding="utf-8"?>
<!-- Generator: Adobe Illustrator 19.0.0, SVG Export Plug-In . SVG Version: 6.00 Build 0)  -->
<svg version="1.1" id="Layer_1" xmlns="http://www.w3.org/2000/svg" xmlns:xlink="http://www.w3.org/1999/xlink" x="0px" y="0px"
	 viewBox="0 0 960 560" style="enable-background:new 0 0 960 560;" xml:space="preserve">
<style type="text/css">
	.st0{fill:#27337C;}
	.st1{fill:#7AD6FE;}
</style>
<g>
	<g>
		<path class="st0" d="M364.5,293.5c1.4-0.2,2.9-0.4,4.3-0.6c5.1-0.6,10.2-1.1,15.3-2c6.7-1.1,13.5-2.3,20.2-3.8
			c5.9-1.3,11.7-3.1,17.6-4.8c0.4-0.1,0.8-0.4,1.4-0.6c-0.2-1-0.4-1.9-0.6-2.9c-1.6-7.6-3.4-15.2-4.7-22.8
			c-1.7-9.7-2.7-19.5-2.7-29.4c0-2.7-0.4-5.3-0.3-8c0.3-6.2,0.9-12.3,1.3-18.5c0.7-9,2.5-17.8,4.8-26.5c2.2-8.3,5.3-16.2,9-24
			c7.5-16,17.3-30.5,28.6-44.1c7.9-9.5,16.4-18.3,25.4-26.7c16.7-15.5,34.8-29.4,53.9-41.8c1.6-1,3.1-2.1,4.8-3.2
			c0.3,1.1-0.4,1.4-0.8,1.8c-3.9,4.1-7.9,8.2-11.7,12.3c-7.2,7.7-14,15.8-20.7,24c-8.5,10.6-16.5,21.5-23.9,32.9
			c-11.8,18.2-21.9,37.2-29.4,57.5c-3.2,8.7-5.8,17.5-7.4,26.7c-0.9,5.1-1.8,10.3-2.5,15.5c-0.5,3.7-0.6,7.4-0.6,11.1
			c-0.1,5.2-0.2,10.3,0,15.5c0.3,6.9,0.8,13.9,1.4,20.8c0.4,5.3,1.1,10.6,1.7,15.8c0.2,1.4,0.4,2.9,0.7,4.5c5.8-2.7,11.5-5.3,17.1-8
			c2.5-1.2,5-2.7,7.5-4c0.2-0.1,0.3-0.1,0.5-0.2c6.2-3.6,12.5-7,18.5-10.8c4.8-3,9.4-6.4,14.1-9.7c4.2-3.3,8.6-6.3,12.6-9.8
			c4.5-4,8.9-8.1,13-12.5c4.6-5,8.5-10.5,10.8-17c3.1-8.9,0.3-16.2-6.3-21.6c-4.2-3.5-9.2-5.7-14.4-7.2c-0.5-0.2-1.1-0.4-1.5-1
			c3.1-0.4,6.2-0.8,9.3-1c3.9-0.3,7.9-0.5,11.8-0.1c6,0.6,11.8,1.9,16.8,5.7c5.8,4.4,9.2,10.3,10.5,17.4c1.7,9.2-1.2,17.1-7.2,24
			c-2.7,3.1-5.8,5.8-8.8,8.7c-0.2,0.2-0.5,0.4-1.2,1c1.9-0.2,3.3-0.3,4.7-0.5c5.1-0.6,10.2-1.1,15.4-0.6c3.9,0.4,7.7,0.8,11.3,2.2
			c9.8,3.7,15.3,10.9,17.3,21c0.1,0.3,0.3,0.5,0.5,0.8c0,2.9,0,5.9,0,8.8c-0.1,0.1-0.4,0.1-0.4,0.3c-1.2,6.1-4.5,11-8.4,15.6
			c-4.4,5.1-9.7,9.2-15.2,12.9c-14.1,9.6-28.6,18.5-43.8,26.1c-1.5,0.8-3,1.6-4.5,2.4c-3.5,1.7-7,3.4-10.6,5
			c-4.1,1.8-8.2,3.6-12.4,5.3c-5.9,2.4-11.8,4.6-17.8,6.9c-3.6,1.1-7.2,2.3-10.7,3.4c-4.8,1.5-9.6,2.9-14.7,4.4
			c4.2,17.1,9,34,14,50.8c-11.1-14.9-20.8-30.5-29.4-47.2c-17.8,3.4-35.8,6.1-54.3,5.7c1.1-0.3,2-0.6,2.9-0.6
			c14.2-0.8,28.2-3.1,42-6.7c2.4-0.6,4.8-1.2,7.5-1.9c-8.7-17.5-16-35.3-21.3-54.1c-2.2,0.5-4.2,0.9-6.3,1.3
			c-7.2,1.6-14.4,3-21.7,3.9c-5.1,0.6-10.2,1.1-15.3,1.6c-5.5,0.6-11.1,0.9-16.7,0.8C364.5,293.7,364.5,293.6,364.5,293.5z
			 M476.1,269.4c-0.7,0.2-1.5,0.4-2.2,0.7c-5.7,2.1-11.4,4.3-17,6.4c-2.1,0.8-4.1,1.5-6.4,2.4c2.9,19,6.9,37.7,11.4,56.5
			c3.4-1.3,6.7-2.4,9.9-3.7c5.1-2.1,10.2-4.4,15.3-6.5c1-0.4,2.1-0.7,3.1-1.2c10.6-5.1,21-10.5,31.1-16.6c1.7-1,3.3-2.3,5-3.5
			c0.5-0.2,1.1-0.4,1.6-0.7c5-3.5,10-7,14.9-10.6c8.6-6.4,16.7-13.5,23.6-21.8c4-4.8,7.5-10,9.2-16.2c1.7-6.1,0.7-11.6-3.3-16.4
			c-5.3-6.4-12.5-9.4-20.1-11.4c-0.5,0.3-0.9,0.5-1.2,0.8c-8.6,6.4-17.7,12.1-26.9,17.6c-4.3,2.5-8.6,5-12.8,7.5
			c-0.3,0.1-0.6,0.2-0.9,0.4c-4.9,2.5-9.7,5.1-14.6,7.5C489.1,263.5,482.6,266.4,476.1,269.4z"/>
		<path class="st1" d="M364.5,293.5c0,0.1,0,0.2,0.1,0.3c-1.4,0-2.8,0.1-4.2,0.1c0-0.2,0-0.3,0-0.5c1.2-0.1,2.4-0.3,3.7-0.4
			C364.2,293,364.3,293.3,364.5,293.5z"/>
		<path class="st1" d="M467.3,528.5c0.3-0.2,0.7-0.3,1-0.5c0,0,0,0,0,0c0,0.2,0,0.3,0,0.5C468,528.5,467.7,528.5,467.3,528.5z"/>
		<path class="st1" d="M488.5,332.4c5.9-2.3,11.9-4.6,17.8-6.9c4.2-1.7,8.3-3.5,12.4-5.3c3.6-1.6,7.1-3.3,10.6-5
			c0.4,2.5,0.8,5,1.2,7.5c0.6,3.4,1.3,6.8,1.9,10.2c0.7,3.4,1.4,6.8,2,10.2c0.5,2.7,0.7,5.4,1.1,8.1c0.5,3,1,6,1.5,9
			c0.3,1.7,0.4,3.4,0.6,5.1c0.2,2.2,0.4,4.4,0.6,6.6c0.3,3.3,0.9,6.6,0.9,9.9c0,4.5,0.6,9.1-0.4,13.6c-0.1,0.3,0,0.7,0,1
			c0,4.9-0.8,9.8-1.5,14.7c-1.4,10.2-4,20-7.4,29.6c-1.6,4.5-3.6,8.9-5.6,13.3c-1.6,3.6-3.3,7.3-5.2,10.8
			c-4.7,8.8-10,17.4-16.1,25.4c-3.4,4.4-6.7,8.8-10.2,13.1c-2.3,2.8-4.9,5.5-7.5,8.1c-3.5,3.6-7,7.1-10.6,10.6
			c-0.5,0.4-1.1,0.7-1.7,1l-0.1-0.1c1.2-2.8,2.5-5.6,3.5-8.4c1.9-5.4,3.7-10.9,5.3-16.3c1.4-4.5,2.5-9.1,3.7-13.6
			c1.1-4.2,2.1-8.5,3-12.8c1-4.5,2-9,2.9-13.6c0.7-3.3,1.1-6.7,1.7-10c0.7-4,1.5-8,2.2-11.9c0.3-1.8,0.6-3.7,0.9-5.5
			c0.2-1.6,0.4-3.2,0.5-4.8c0.2-1.5,0.3-3,0.5-4.5c0.8-7.8,0.4-15.6,0.5-23.4c0-1.9-0.3-3.9-0.5-5.8c-0.2-1.9,0-3.9-0.4-5.9
			c-0.5-2.2-0.4-4.6-0.6-6.9c-0.2-2-0.6-4-0.8-6c-0.2-1.8-0.4-3.5-0.7-5.3c-0.6-4-1.3-8-2-12c-0.7-4.4-1.4-8.8-2.2-13.3
			C489.9,339.3,489.2,335.9,488.5,332.4z"/>
		<path class="st1" d="M470.4,525.9c-0.1,1.3-0.8,1.9-2.1,2.1l0,0C468.4,526.7,469.2,526.1,470.4,525.9L470.4,525.9z"/>
		<path class="st1" d="M472.5,523.9c0.2-0.4,0.3-0.7,0.5-1.1c0,0,0.1,0.1,0.1,0.1C472.9,523.2,472.7,523.5,472.5,523.9
			C472.5,523.9,472.5,523.9,472.5,523.9z"/>
		<path class="st1" d="M472.5,523.9c-0.1,0.1-0.2,0.3-0.2,0.4C472.3,524.1,472.4,524,472.5,523.9
			C472.5,523.9,472.5,523.9,472.5,523.9z"/>
		<path class="st1" d="M470.4,525.9C470.5,525.8,470.6,525.7,470.4,525.9C470.7,525.8,470.6,525.9,470.4,525.9L470.4,525.9z"/>
		<path class="st1" d="M507.1,239.7c-4.7,3.2-9.2,6.7-14.1,9.7c-6.1,3.8-12.3,7.2-18.5,10.8c-0.1,0.1-0.3,0.1-0.5,0.2
			c-0.8-3.7-1.4-7.5-1.6-11.3c-0.1-2.8-0.6-5.6-0.9-8.3c0-0.2,0-0.3,0-0.5c-0.2-3.7-0.3-7.3-0.6-11c-0.7-8.5-0.5-17-0.5-25.5
			c0-3.9,0.4-7.8,1-11.7c0.3-1.8,0.4-3.7,0.6-5.6c0.7-6.1,2.2-12,4.3-17.7c2.3-6.5,5.1-12.7,8.3-18.8c4.2-8.1,9-16,14.2-23.5
			c4.3-6.2,8.7-12.4,13.5-18.2c4.3-5.3,8.6-10.6,12.9-15.9c1.7-2,3.5-4,5.3-5.9c0.5-0.5,1.2-0.8,1.8-1.3c0,0,0.1,0.1,0.1,0.1
			c-1,1.6-2,3.1-3,4.7c-2.5,3.9-5.1,7.8-7.6,11.8c-1.9,3.2-3.8,6.4-5.4,9.8c-2.2,4.6-4.3,9.4-6.2,14.2c-2.4,6-4.4,12.2-6,18.5
			c-1,3.7-1.6,7.6-2.3,11.4c-0.7,3.7-1.3,7.5-2,11.2c0,0.2,0,0.3,0,0.5c-0.2,3.2-0.4,6.5-0.5,9.7c-0.2,3.5-0.5,7-0.5,10.5
			c0,4,0,8.1,0.6,12c0.5,3.7,0.4,7.4,1.4,11.1c0.6,2.3,0.7,4.9,1.1,7.3c0.9,4.5,1.8,9.1,2.9,13.6
			C505.5,234.2,506.3,236.9,507.1,239.7z"/>
		<path class="st1" d="M532.3,85.1c0-1.4,0.7-2.3,2.1-2.5l0,0c-0.1,1.3-1.1,1.9-2,2.6L532.3,85.1z"/>
		<path class="st0" d="M543.8,33.6c0-0.1,0.1-0.3,0-0.1C544,33.4,543.9,33.4,543.8,33.6C543.8,33.5,543.8,33.6,543.8,33.6z"/>
		<path class="st0" d="M543.8,33.5c-0.1,0.1-0.2,0.3-0.4,0.4c0-0.1-0.1-0.1-0.1-0.2C543.5,33.7,543.6,33.6,543.8,33.5
			C543.8,33.6,543.8,33.5,543.8,33.5z"/>
		<path class="st1" d="M535.5,81.1c0.1-0.1,0.2-0.3,0.2-0.4C535.7,80.8,535.6,80.9,535.5,81.1L535.5,81.1z"/>
		<path class="st1" d="M535.5,81.1C535.4,81.2,535.4,81.4,535.5,81.1C535.3,81.3,535.4,81.2,535.5,81.1
			C535.5,81.1,535.5,81.1,535.5,81.1z"/>
		<path class="st1" d="M534.5,82.6C534.6,82.5,534.6,82.3,534.5,82.6C534.8,82.4,534.6,82.5,534.5,82.6
			C534.5,82.6,534.5,82.6,534.5,82.6z"/>
		<path class="st1" d="M511.1,252.5c2.9,8.6,5.7,17.3,8.6,25.9c2.6,7.7,4.4,15.5,6.4,23.3c0.2,0.6,0.1,1.4,0.1,2.1
			c-1.7,1.2-3.3,2.4-5,3.5c-10.1,6.1-20.5,11.5-31.1,16.6c-1,0.5-2.1,0.8-3.1,1.2c-0.8-4.2-1.5-8.5-2.3-12.7
			c-0.8-4-1.7-8.1-2.5-12.1c-0.5-2.6-1-5.3-1.6-7.9c-0.9-4.6-1.9-9.2-2.8-13.8c-0.6-3-1.3-6.1-1.9-9.1c6.5-3,13.1-5.9,19.5-9
			c4.9-2.4,9.7-5,14.6-7.5C510.5,252.7,510.8,252.6,511.1,252.5z"/>
	</g>
</g>
</svg>
